<svg width="16" height="16" viewBox="0 0 16 16" fill="none" xmlns="http://www.w3.org/2000/svg">
<rect width="16" height="16" fill="white"/>
<path d="M14.7333 6.06667C14.6666 3.8 12.8666 2 10.6 2C9.86665 2 8.73331 2.53333 8.26665 3.4C8.19998 3.6 7.93331 3.6 7.86665 3.4C7.33331 2.6 6.26665 2.06667 5.46665 2.06667C3.26665 2.06667 1.39998 3.86667 1.33331 6.06667V6.2C1.33331 7.33333 1.79998 8.4 2.59998 9.2C2.59998 9.2 2.59998 9.2 2.59998 9.26667C2.66665 9.33333 5.86665 12.1333 7.33331 13.4C7.73331 13.7333 8.33331 13.7333 8.73331 13.4C10.2 12.1333 13.3333 9.33333 13.4666 9.26667C13.4666 9.26667 13.4666 9.26667 13.4666 9.2C14.2666 8.46667 14.7333 7.4 14.7333 6.2V6.06667Z" fill="#DC2A2D"/>
</svg>
